# xmcd
#
# Track frame offsets:
#	150
#	3037
#	23912
#	43617
#	63437
#	80960
#	99312
#	118555
#	138870
#	160257
#	180580
#	199370
#	222950
#	239130
#	259205
#	279617
#
# Disc length: 3957 seconds
#
# Revision: 1
# Processed by: cddbd v1.5.2PL0 Copyright (c) Steve Scherf et al.
# Submitted via: audiograbber 1.83.01
#
DISCID=e50f7310
DTITLE=The Almighty RSO - Doomsday: Forever RSO
DYEAR=1996
DGENRE=Rap
TTITLE0=The Almighty RSO - Doomsday Intro
TTITLE1=The Almighty RSO - Forever RSO
TTITLE2=The Almighty RSO, Mobb Deep - War's On
TTITLE3=The Almighty RSO - Thought You Knew
TTITLE4=The Almighty RSO - Gotta Be A Better Way
TTITLE5=The Almighty RSO, Tangg Da Juice - Summer Knightz
TTITLE6=The Almighty RSO, D-Ruff - Sanity
TTITLE7=The Almighty RSO, Mad Lion - You'll Never Know
TTITLE8=The Almighty RSO, Faith Evans - You Could Be My Boo
TTITLE9=The Almighty RSO - Mix Of Action
TTITLE10=The Almighty RSO, Cool Gsus - Keep Alive
TTITLE11=The Almighty RSO, 8Ball, MJG - Illicit Activity
TTITLE12=The Almighty RSO - Killin' Em
TTITLE13=The Almighty RSO, M.O.P., Cocoa Brovaz - One In Tha Chamba
TTITLE14=The Almighty RSO, Cool Gsus, M3, Fuckamon - Quarter Past Nine
TTITLE15=The Almighty RSO - We'll Remember You
EXTD=www.RapMusicGuide.com
EXTT0=
EXTT1=
EXTT2=
EXTT3=
EXTT4=
EXTT5=
EXTT6=
EXTT7=
EXTT8=
EXTT9=
EXTT10=
EXTT11=
EXTT12=
EXTT13=
EXTT14=
EXTT15=
PLAYORDER=
